<svg height="512pt" viewBox="0 -10 500 400" width="512pt" xmlns="http://www.w3.org/2000/svg"><path d="m371.332031 115.527344v94.914062c-5.84375-2.46875-12.265625-3.832031-19-3.832031-27.019531 0-49 21.980469-49 49s21.980469 49 49 49 49-21.980469 49-49v-118.039063l80.667969-25.269531v62.007813c-5.847656-2.46875-12.265625-3.835938-19-3.835938-27.019531 0-49 21.980469-49 49 0 27.019532 21.980469 49 49 49 26.527344 0 48.183594-21.191406 48.964844-47.53125h.035156v-149.476562zm0 0"></path><path d="m303.332031 140.609375h30v30h-30zm0 0"></path><path d="m366 41.359375h30v30h-30zm0 0"></path><path d="m414 307.359375h30v30h-30zm0 0"></path><path d="m0 94.214844h79.652344v199.492187h-79.652344zm0 0"></path><path d="m109.652344 303.425781 161.347656 83.996094v-386.921875l-161.347656 83.996094zm0 0"></path></svg>